<?xml version="1.0" encoding="utf-8"?>
<svg height="64" preserveAspectRatio="none" viewBox="0 0 64 64" width="64" xmlns="http://www.w3.org/2000/svg">
  <path d="M 32.019 45.415 C 24.636 45.415 18.63 39.409 18.63 32.026 C 18.63 24.642 24.636 18.636 32.019 18.636 C 39.402 18.636 45.408 24.642 45.408 32.026 C 45.408 39.409 39.402 45.415 32.019 45.415 Z M 32.019 21.636 C 26.29 21.636 21.63 26.297 21.63 32.026 C 21.63 37.755 26.29 42.415 32.019 42.415 C 37.748 42.415 42.408 37.755 42.408 32.026 C 42.408 26.297 37.748 21.636 32.019 21.636 Z" style="fill: rgb(255, 255, 255);"/>
  <path d="m32 5.482422v10.165039" style="fill: rgb(255, 255, 255);"/>
  <path d="m32 17.1474609c-.8291016 0-1.5-.6708984-1.5-1.5v-10.165039c0-.828125.6708984-1.5 1.5-1.5.828125 0 1.5.671875 1.5 1.5v10.1650391c0 .8291015-.671875 1.4999999-1.5 1.4999999z" style="fill: rgb(255, 255, 255);"/>
  <path d="m13.249023 13.25 7.188477 7.1875" style="fill: rgb(255, 255, 255);"/>
  <path d="m20.4375 21.9375c-.3837891 0-.7675781-.1464844-1.0605469-.4394531l-7.1884766-7.1875c-.5859375-.5859375-.5859375-1.5351563 0-2.1210938s1.5351563-.5859375 2.1210938 0l7.1884766 7.1875c.5859375.5849609.5859375 1.5351563 0 2.1210938-.2929688.2929687-.6767578.4394531-1.0605469.4394531z" style="fill: rgb(255, 255, 255);"/>
  <path d="m5.482422 32h10.165039" style="fill: rgb(255, 255, 255);"/>
  <path d="m15.6474609 33.5h-10.165039c-.828125 0-1.5-.671875-1.5-1.5 0-.8291016.671875-1.5 1.5-1.5h10.1650391c.8291016 0 1.5.6708984 1.5 1.5-.0000001.828125-.6708985 1.5-1.5000001 1.5z" style="fill: rgb(255, 255, 255);"/>
  <path d="m13.249023 50.75 7.188477-7.1875" style="fill: rgb(255, 255, 255);"/>
  <path d="m13.2490234 52.25c-.3837891 0-.7675781-.1464844-1.0605469-.4394531-.5859375-.5859375-.5859375-1.5351563 0-2.1210938l7.1884766-7.1875c.5859375-.5859375 1.5351563-.5859375 2.1210938 0s.5859375 1.5351563 0 2.1210938l-7.1884766 7.1875c-.2929687.2929687-.6767578.4394531-1.0605469.4394531z" style="fill: rgb(255, 255, 255);"/>
  <path d="m31.999023 58.517578.000977-10.166015" style="fill: rgb(255, 255, 255);"/>
  <path d="m31.9990234 60.0175781c-.828125 0-1.5-.671875-1.5-1.5l.0009766-10.1660156c0-.828125.671875-1.5 1.5-1.5.828125 0 1.5.671875 1.5 1.5l-.0009766 10.1660156c0 .828125-.671875 1.5-1.5 1.5z" style="fill: rgb(255, 255, 255);"/>
  <path d="m50.75 50.751953-7.1875-7.189453" style="fill: rgb(255, 255, 255);"/>
  <path d="m50.75 52.2519531c-.3837891 0-.7675781-.1464844-1.0605469-.4394531l-7.1875-7.1894531c-.5859375-.5859375-.5859375-1.5351563 0-2.1210938s1.5351563-.5859375 2.1210938 0l7.1875 7.1894531c.5859375.5859375.5859375 1.5351563 0 2.1210938-.2929688.2929688-.6767578.4394531-1.0605469.4394531z" style="fill: rgb(255, 255, 255);"/>
  <path d="m58.517578 32.000977-10.166015-.000977" style="fill: rgb(255, 255, 255);"/>
  <path d="m58.5175781 33.5009766-10.1660156-.0009766c-.828125 0-1.5-.671875-1.5-1.5 0-.8291016.671875-1.5 1.5-1.5l10.1660156.0009766c.828125 0 1.5.671875 1.5 1.5s-.671875 1.5-1.5 1.5z" style="fill: rgb(255, 255, 255);"/>
  <path d="m50.751953 13.25-7.189453 7.1875" style="fill: rgb(255, 255, 255);"/>
  <path d="m43.5625 21.9375c-.3837891 0-.7675781-.1464844-1.0605469-.4394531-.5859375-.5859375-.5859375-1.5361328 0-2.1220703l7.1894531-7.1865234c.5859375-.5849609 1.5351563-.5859375 2.1210938 0s.5859375 1.5361328 0 2.1220703l-7.1894531 7.1865234c-.2929688.2929687-.6767578.4394531-1.0605469.4394531z" style="fill: rgb(255, 255, 255);"/>
</svg>