<svg xmlns="http://www.w3.org/2000/svg" version="1.1" xmlns:xlink="http://www.w3.org/1999/xlink" xmlns:svgjs="http://svgjs.dev/svgjs" viewBox="0 0 800 800" opacity="1"><defs><linearGradient x1="50%" y1="0%" x2="50%" y2="100%" id="gggyrate-grad"><stop stop-color="hsl(274, 90%, 55%)" stop-opacity="1" offset="0%"></stop><stop stop-color="hsl(212, 72%, 59%)" stop-opacity="1" offset="100%"></stop></linearGradient></defs><g stroke-width="15.5" stroke="url(#gggyrate-grad)" fill="none"><path d="M375.5129408035406 -15.90210217761404C385.5434015050572 -36.17476636699192 414.45653745978655 -36.17476636699192 424.4869981613032 -15.90210217761404L824.1310161493097 791.6678089094576C833.1164237440294 809.8264604416208 819.9064060411124 831.1066104692513 799.6439874704286 831.1066104692513H0.35595149441519425C-19.906467076268598 831.1066104692513 -33.11648477918527 809.8264604416208 -24.131077184466164 791.6678089094576L375.5129408035406 -15.90210217761404Z " transform="rotate(84, 400, 400)" opacity="0.05"></path><path d="M377.2620142806036 13.80517884602412C386.57601350344044 -5.019437901255344 413.4239254614033 -5.019437901255344 422.73792468424017 13.80517884602412L793.8359413873891 763.6915248554477C802.1795341539143 780.5531298495995 789.913089144063 800.3132691609703 771.097986185571 800.3132691609703H28.90195277927279C10.086849820780742 800.3132691609703 -2.1795951890704828 780.5531298495995 6.163997577454381 763.6915248554477L377.2620142806036 13.80517884602412Z " transform="rotate(78, 400, 400)" opacity="0.12"></path><path d="M379.0110877576665 43.512490387240405C387.60862550182355 26.135921082059383 412.3913134630202 26.135921082059383 420.9888512071773 43.512490387240405L763.5408666254685 735.715271319016C771.2426445637997 751.2798297751561 759.9197722470137 769.5199583702678 742.5519849007134 769.5199583702678H57.447954064130386C40.08016671783008 769.5199583702678 28.757294401044305 751.2798297751561 36.459072339374984 735.715271319016L379.0110877576665 43.512490387240405Z " transform="rotate(72, 400, 400)" opacity="0.20"></path><path d="M380.76016123472937 73.2197714108786C388.6412375002068 57.29124954779596 411.35870146463697 57.29124954779596 419.2397777301144 73.2197714108786L733.2457918635481 707.7389872650061C740.3057549736848 722.0064991831347 729.9264553499643 738.726617061987 714.0059836158557 738.726617061987H85.99395534898804C70.07348361487936 738.726617061987 59.69418399115909 722.0064991831347 66.75414710129553 707.7389872650061L380.76016123472937 73.2197714108786Z " transform="rotate(66, 400, 400)" opacity="0.27"></path><path d="M382.5092347117924 102.92703717572769C389.67384949859 88.4465627547435 410.32608946625373 88.4465627547435 417.4907042530514 102.92703717572769L702.9507171016274 679.7626879522073C709.36886538357 692.733153332324 699.933138452915 707.9332604949171 685.4599823309981 707.9332604949171H114.53995663384563C100.0668005119287 707.9332604949171 90.63107358127394 692.733153332324 97.04922186321613 679.7626879522073L382.5092347117924 102.92703717572769Z " transform="rotate(60, 400, 400)" opacity="0.34"></path><path d="M384.2583081888554 132.6343334581549C390.70646149697313 119.60190647926913 409.2934774678706 119.60190647926913 415.74163077598837 132.6343334581549L672.6556423397069 651.7864191569867C678.4319757934552 663.4598379990916 669.9398215558657 677.1399344454254 656.9139810461405 677.1399344454254H143.0859579187033C130.060117408978 677.1399344454254 121.56796317138873 663.4598379990916 127.34429662513668 651.7864191569867L384.2583081888554 132.6343334581549Z " transform="rotate(54, 400, 400)" opacity="0.42"></path><path d="M386.00739692470734 162.34164499937123C391.7390887541454 150.75726546258386 408.26088072827645 150.75726546258386 413.99257255771454 162.34164499937123L642.3605828365755 623.8101656205549C647.4951014621295 634.1865379246483 639.9465199176054 646.3466236547229 628.3679950200719 646.3466236547229H171.63197446234994C160.0534495648164 646.3466236547229 152.50486802029258 634.1865379246483 157.63938664584634 623.8101656205549L386.00739692470734 162.34164499937123Z " transform="rotate(48, 400, 400)" opacity="0.49"></path><path d="M387.75648566055935 192.04894128179845C392.77171601131766 181.9126091871095 407.22828398868234 181.9126091871095 412.24351433944065 192.04894128179845L612.0655233334439 595.8338968253343C616.5582271308037 604.9132225914159 609.9532182793453 615.5532976052311 599.8220089940033 615.5532976052311H200.17799100599666C190.0467817206548 615.5532976052311 183.44177286919643 604.9132225914159 187.93447666655595 595.8338968253343L387.75648566055935 192.04894128179845Z " transform="rotate(42, 400, 400)" opacity="0.56"></path><path d="M389.5055591376223 221.75623756422567C393.80432800970084 213.06795291163516 406.19567199029916 213.06795291163516 410.4944408623777 221.75623756422567L581.7704485715233 567.8576280301135C585.621337540689 575.6399072581835 579.9599013822959 584.7599715557394 571.2760077091457 584.7599715557394H228.72399229085426C220.04009861770407 584.7599715557394 214.37866245931122 575.6399072581835 218.22955142847655 567.8576280301135L389.5055591376223 221.75623756422567Z " transform="rotate(36, 400, 400)" opacity="0.63"></path><path d="M391.25463261468525 251.46353384665292C394.83694000808407 244.2232966361608 405.16305999191593 244.2232966361608 408.74536738531475 251.46353384665292L551.4753738096028 539.8813592348927C554.684447950574 546.3665919249511 549.9665844852466 553.9666455062477 542.7300064242881 553.9666455062477H257.2699935757119C250.03341551475341 553.9666455062477 245.315552049426 546.3665919249511 248.5246261903971 539.8813592348927L391.25463261468525 251.46353384665292Z " transform="rotate(30, 400, 400)" opacity="0.71"></path><path d="M393.0037060917482 281.17082249968564C395.86955200646725 275.37863273129193 404.13044799353275 275.37863273129193 406.9962939082518 281.17082249968564L521.1802990476823 511.90508281027746C523.7475583604593 517.0932689623241 519.9732675881972 523.1733118273614 514.1840051394305 523.1733118273614H285.8159948605695C280.02673241180275 523.1733118273614 276.2524416395408 517.0932689623241 278.8197009523177 511.90508281027746L393.0037060917482 281.17082249968564Z " transform="rotate(24, 400, 400)" opacity="0.78"></path><path d="M394.75277956881115 310.87812641150737C396.9021640048504 306.53398408521207 403.0978359951496 306.53398408521207 405.24722043118885 310.87812641150737L490.88522428576164 483.92882164445126C492.8106687703445 487.8199612584863 489.97995069114796 492.37999340726424 485.63800385457284 492.37999340726424H314.36199614542716C310.02004930885204 492.37999340726424 307.18933122965564 487.8199612584863 309.11477571423825 483.92882164445126L394.75277956881115 310.87812641150737Z " transform="rotate(18, 400, 400)" opacity="0.85"></path><path d="M396.5018530458741 340.58542269393456C397.9347760032336 337.68932780973773 402.0652239967664 337.68932780973773 403.4981469541259 340.58542269393456L460.59014952384115 455.9525528492305C461.87377918022963 458.54664592525387 459.9866337940986 461.5866673577725 457.09200256971525 461.5866673577725H342.90799743028475C340.0133662059014 461.5866673577725 338.1262208197704 458.54664592525387 339.40985047615885 455.9525528492305L396.5018530458741 340.58542269393456Z " transform="rotate(12, 400, 400)" opacity="0.93"></path><path d="M398.25092652293705 370.29270371757275C398.9673880016168 368.84465627547434 401.0326119983832 368.84465627547434 401.74907347706295 370.29270371757275L430.29507476192055 427.97626879522073C430.9368895901148 429.2733153332324 429.99331689704934 430.7933260494917 428.5460012848576 430.7933260494917H371.4539987151424C370.00668310295066 430.7933260494917 369.0631104098852 429.2733153332324 369.7049252380794 427.97626879522073L398.25092652293705 370.29270371757275Z " transform="rotate(6, 400, 400)" opacity="1.00"></path></g></svg>